<?xml version="1.0" encoding="UTF-8" standalone="no"?>
<svg
   xmlns:dc="http://purl.org/dc/elements/1.1/"
   xmlns:cc="http://creativecommons.org/ns#"
   xmlns:rdf="http://www.w3.org/1999/02/22-rdf-syntax-ns#"
   xmlns:svg="http://www.w3.org/2000/svg"
   xmlns="http://www.w3.org/2000/svg"
   xmlns:sodipodi="http://sodipodi.sourceforge.net/DTD/sodipodi-0.dtd"
   xmlns:inkscape="http://www.inkscape.org/namespaces/inkscape"
   sodipodi:docname="spoddit.svg"
   inkscape:version="1.0 (4035a4fb49, 2020-05-01)"
   id="svg1560"
   version="1.1"
   viewBox="0 0 210 297"
   height="297mm"
   width="210mm">
  <defs
     id="defs1554" />
  <sodipodi:namedview
     inkscape:window-maximized="1"
     inkscape:window-y="28"
     inkscape:window-x="0"
     inkscape:window-height="1028"
     inkscape:window-width="1920"
     showgrid="false"
     inkscape:document-rotation="0"
     inkscape:current-layer="layer2"
     inkscape:document-units="mm"
     inkscape:cy="557.71122"
     inkscape:cx="680.37995"
     inkscape:zoom="0.7"
     inkscape:pageshadow="2"
     inkscape:pageopacity="0.0"
     borderopacity="1.0"
     bordercolor="#666666"
     pagecolor="#ffffff"
     id="base" />
  <metadata
     id="metadata1557">
    <rdf:RDF>
      <cc:Work
         rdf:about="">
        <dc:format>image/svg+xml</dc:format>
        <dc:type
           rdf:resource="http://purl.org/dc/dcmitype/StillImage" />
        <dc:title></dc:title>
      </cc:Work>
    </rdf:RDF>
  </metadata>
  <g
     id="layer1"
     inkscape:groupmode="layer"
     inkscape:label="Reddit">
    <g
       transform="matrix(6.0854166,0,0,6.0854166,31.7884,71.489517)"
       id="g2183">
      <circle
         style="fill:#ff4500;fill-opacity:1"
         r="10"
         fill="#ff4500"
         cx="10"
         cy="10"
         id="circle2179" />
      <path
         fill="#ffffff"
         d="M 16.67,10 A 1.46,1.46 0 0 0 14.2,9 7.12,7.12 0 0 0 10.35,7.77 L 11,4.65 13.14,5.1 A 1,1 0 1 0 13.27,4.49 L 10.82,4 A 0.31,0.31 0 0 0 10.45,4.24 L 9.71,7.71 a 7.14,7.14 0 0 0 -3.9,1.23 1.46,1.46 0 1 0 -1.61,2.39 2.87,2.87 0 0 0 0,0.44 c 0,2.24 2.61,4.06 5.83,4.06 3.22,0 5.83,-1.82 5.83,-4.06 a 2.87,2.87 0 0 0 0,-0.44 1.46,1.46 0 0 0 0.81,-1.33 z m -10,1 a 1,1 0 1 1 1,1 1,1 0 0 1 -1,-1 z m 5.81,2.75 A 3.84,3.84 0 0 1 10.01,14.52 3.84,3.84 0 0 1 7.54,13.75 0.27,0.27 0 0 1 7.92,13.37 3.27,3.27 0 0 0 10,14 a 3.28,3.28 0 0 0 2.09,-0.61 0.27932955,0.27932955 0 1 1 0.39,0.4 z M 12.3,12.04 a 1,1 0 1 1 1,-1 1,1 0 0 1 -1.01,1.04 z"
         id="path2181" />
    </g>
  </g>
  <g
     inkscape:label="Spotify"
     id="layer2"
     inkscape:groupmode="layer">
    <path
       style="fill:#1ed760;fill-opacity:1;stroke:#000000;stroke-width:0.0875;stroke-miterlimit:4;stroke-dasharray:none;stroke-opacity:0.5"
       d="m 78.613287,130.45368 c -4.297005,0 -7.78038,3.48338 -7.78038,7.78038 0,4.297 3.483375,7.78041 7.78038,7.78041 4.297,0 7.780405,-3.48341 7.780405,-7.78041 0,-4.297 -3.483405,-7.78038 -7.780405,-7.78038 m 3.56859,11.22163 c -0.139375,0.22906 -0.43856,0.30156 -0.66725,0.16125 -1.82728,-1.11619 -4.125845,-1.36837 -6.83453,-0.74991 -0.63003,0.14375 -0.845845,-0.80118 -0.215625,-0.94506 2.96331,-0.678 5.505815,-0.38612 7.556315,0.86735 0.228125,0.13968 0.3,0.43821 0.16125,0.6664 m 0.95084,-2.11831 c -0.17531,0.285 -0.547965,0.3745 -0.833435,0.2 -2.09103,-1.28572 -5.279285,-1.65778 -7.753125,-0.90703 -0.74122,0.17594 -1.06619,-0.89516 -0.35222,-1.16088 2.82606,-0.85741 6.338405,-0.4415 8.7395,1.03353 0.28594,0.17532 0.375625,0.54929 0.2,0.8351 m 0.08281,-2.20678 c -2.508595,-1.48913 -6.646005,-1.62638 -9.03966,-0.89876 -0.937435,0.29906 -1.368065,-1.12003 -0.4225,-1.39237 2.74753,-0.8351 7.316565,-0.67303 10.203,1.04012 0.834535,0.495 0.09188,1.74682 -0.7425,1.25182"
       id="path972"
       sodipodi:nodetypes="cssscccccccccccccccccc" />
  </g>
</svg>
